<svg id="calendar_4_" data-name="calendar (4)" xmlns="http://www.w3.org/2000/svg" width="24" height="24" viewBox="0 0 24 24">
  <g id="Group_418" data-name="Group 418">
    <g id="Group_417" data-name="Group 417">
      <path id="Path_518" data-name="Path 518" d="M23.063,16.5A.937.937,0,0,0,24,15.563V5.625a3.754,3.754,0,0,0-3.75-3.75H19.031V.938a.937.937,0,1,0-1.875,0v.938H12.891V.938a.938.938,0,0,0-1.875,0v.938H6.8V.938a.938.938,0,0,0-1.875,0v.938H3.75A3.754,3.754,0,0,0,0,5.625V20.25A3.754,3.754,0,0,0,3.75,24h16.5A3.754,3.754,0,0,0,24,20.25a.938.938,0,0,0-1.875,0,1.877,1.877,0,0,1-1.875,1.875H3.75A1.877,1.877,0,0,1,1.875,20.25V5.625A1.877,1.877,0,0,1,3.75,3.75H4.922v.937a.938.938,0,0,0,1.875,0V3.75h4.219v.937a.938.938,0,0,0,1.875,0V3.75h4.266v.937a.938.938,0,0,0,1.875,0V3.75H20.25a1.877,1.877,0,0,1,1.875,1.875v9.938A.937.937,0,0,0,23.063,16.5Z" fill="#7b7a8d"/>
    </g>
  </g>
  <g id="Group_420" data-name="Group 420" transform="translate(4.922 8.906)">
    <g id="Group_419" data-name="Group 419">
      <circle id="Ellipse_18" data-name="Ellipse 18" cx="0.938" cy="0.938" r="0.938" fill="#7b7a8d"/>
    </g>
  </g>
  <g id="Group_422" data-name="Group 422" transform="translate(13.078 8.906)">
    <g id="Group_421" data-name="Group 421">
      <circle id="Ellipse_19" data-name="Ellipse 19" cx="0.938" cy="0.938" r="0.938" fill="#7b7a8d"/>
    </g>
  </g>
  <g id="Group_424" data-name="Group 424" transform="translate(17.156 8.906)">
    <g id="Group_423" data-name="Group 423">
      <circle id="Ellipse_20" data-name="Ellipse 20" cx="0.938" cy="0.938" r="0.938" fill="#7b7a8d"/>
    </g>
  </g>
  <g id="Group_426" data-name="Group 426" transform="translate(4.922 12.984)">
    <g id="Group_425" data-name="Group 425">
      <circle id="Ellipse_21" data-name="Ellipse 21" cx="0.938" cy="0.938" r="0.938" fill="#7b7a8d"/>
    </g>
  </g>
  <g id="Group_428" data-name="Group 428" transform="translate(4.922 17.063)">
    <g id="Group_427" data-name="Group 427">
      <circle id="Ellipse_22" data-name="Ellipse 22" cx="0.938" cy="0.938" r="0.938" fill="#7b7a8d"/>
    </g>
  </g>
  <g id="Group_430" data-name="Group 430" transform="translate(9 8.906)">
    <g id="Group_429" data-name="Group 429">
      <circle id="Ellipse_23" data-name="Ellipse 23" cx="0.938" cy="0.938" r="0.938" fill="#7b7a8d"/>
    </g>
  </g>
  <g id="Group_432" data-name="Group 432" transform="translate(9 12.984)">
    <g id="Group_431" data-name="Group 431">
      <circle id="Ellipse_24" data-name="Ellipse 24" cx="0.938" cy="0.938" r="0.938" fill="#7b7a8d"/>
    </g>
  </g>
  <g id="Group_434" data-name="Group 434" transform="translate(9 17.063)">
    <g id="Group_433" data-name="Group 433">
      <circle id="Ellipse_25" data-name="Ellipse 25" cx="0.938" cy="0.938" r="0.938" fill="#7b7a8d"/>
    </g>
  </g>
  <g id="Group_436" data-name="Group 436" transform="translate(13.078 12.984)">
    <g id="Group_435" data-name="Group 435">
      <circle id="Ellipse_26" data-name="Ellipse 26" cx="0.938" cy="0.938" r="0.938" fill="#7b7a8d"/>
    </g>
  </g>
  <g id="Group_438" data-name="Group 438" transform="translate(17.156 12.984)">
    <g id="Group_437" data-name="Group 437">
      <circle id="Ellipse_27" data-name="Ellipse 27" cx="0.938" cy="0.938" r="0.938" fill="#7b7a8d"/>
    </g>
  </g>
  <g id="Group_440" data-name="Group 440" transform="translate(13.078 17.063)">
    <g id="Group_439" data-name="Group 439">
      <circle id="Ellipse_28" data-name="Ellipse 28" cx="0.938" cy="0.938" r="0.938" fill="#7b7a8d"/>
    </g>
  </g>
</svg>
