<svg id="product" xmlns="http://www.w3.org/2000/svg" width="34.145" height="31" viewBox="0 0 34.145 31">
  <g id="portfolio">
    <g id="Group_284" data-name="Group 284" transform="translate(0 0)">
      <g id="Group_283" data-name="Group 283">
        <rect id="Rectangle_579" data-name="Rectangle 579" width="8.087" height="4.942" transform="translate(13.029 20.217)" fill="#8f48eb"/>
        <path id="Path_353" data-name="Path 353" d="M22.464,278.5v2.381a.719.719,0,0,1-.629.764H12.31a.719.719,0,0,1-.629-.764V278.5H2.112A3.815,3.815,0,0,1,0,277.42v6.29a2.472,2.472,0,0,0,2.112,2.426H32.033a2.472,2.472,0,0,0,2.112-2.426v-6.29a3.815,3.815,0,0,1-2.112,1.078Z" transform="translate(0 -255.136)" fill="#8f48eb"/>
        <path id="Path_354" data-name="Path 354" d="M32.033,91.429H2.112A1.948,1.948,0,0,0,0,93.271v11.456a2.472,2.472,0,0,0,2.112,2.426h9.57v-2.606c0-.359.27-.539.629-.539h9.525c.359,0,.629.18.629.539v2.606h9.57a2.472,2.472,0,0,0,2.112-2.426V93.271A1.948,1.948,0,0,0,32.033,91.429Z" transform="translate(0 -85.139)" fill="#8f48eb"/>
        <path id="Path_355" data-name="Path 355" d="M111.511,21.611a1.478,1.478,0,0,1,1.662-1.528h8.357a1.478,1.478,0,0,1,1.662,1.528v2.067h1.8V21.611a3.269,3.269,0,0,0-3.459-3.325h-8.357a3.269,3.269,0,0,0-3.459,3.325v2.067h1.8Z" transform="translate(-100.279 -18.286)" fill="#8f48eb"/>
      </g>
    </g>
  </g>
</svg>
