<svg xmlns="http://www.w3.org/2000/svg" width="34" height="34" viewBox="0 0 34 34">
  <path id="question_1_" data-name="question (1)" d="M17,0A17,17,0,1,0,34,17,17.019,17.019,0,0,0,17,0Zm0,26.917A1.417,1.417,0,1,1,18.417,25.5,1.417,1.417,0,0,1,17,26.917Zm2.243-9.007a1.423,1.423,0,0,0-.826,1.288v.636a1.417,1.417,0,1,1-2.833,0V19.2a4.268,4.268,0,0,1,2.472-3.862,4.63,4.63,0,0,0,2.486-3.294,3.542,3.542,0,1,0-7.083,0,1.417,1.417,0,1,1-2.833,0,6.375,6.375,0,0,1,12.75,0,7.382,7.382,0,0,1-4.132,5.868Zm0,0" fill="#f56b95"/>
</svg>
