<svg id="Group_302" data-name="Group 302" xmlns="http://www.w3.org/2000/svg" width="38.559" height="25.559" viewBox="0 0 38.559 25.559">
  <g id="user_4_" data-name="user (4)">
    <g id="Group_286" data-name="Group 286" transform="translate(13.618 0)">
      <g id="Group_285" data-name="Group 285">
        <circle id="Ellipse_2" data-name="Ellipse 2" cx="6" cy="6" r="6" fill="#4de0f9"/>
      </g>
    </g>
    <g id="Group_288" data-name="Group 288" transform="translate(26.618 7)">
      <g id="Group_287" data-name="Group 287" transform="translate(0 0)">
        <ellipse id="Ellipse_3" data-name="Ellipse 3" cx="4.5" cy="4" rx="4.5" ry="4" fill="#4de0f9"/>
      </g>
    </g>
    <g id="Group_290" data-name="Group 290" transform="translate(3.472 7.118)">
      <g id="Group_289" data-name="Group 289" transform="translate(0 0)">
        <circle id="Ellipse_4" data-name="Ellipse 4" cx="4.191" cy="4.191" r="4.191" fill="#4de0f9"/>
      </g>
    </g>
    <g id="Group_292" data-name="Group 292" transform="translate(8.382 13.824)">
      <g id="Group_291" data-name="Group 291">
        <path id="Path_356" data-name="Path 356" d="M117.563,256a10.91,10.91,0,0,0-10.9,10.9.839.839,0,0,0,.838.838h20.118a.839.839,0,0,0,.838-.838A10.91,10.91,0,0,0,117.563,256Z" transform="translate(-106.666 -256)" fill="#4de0f9"/>
      </g>
    </g>
    <g id="Group_294" data-name="Group 294" transform="translate(0 17.176)">
      <g id="Group_293" data-name="Group 293">
        <path id="Path_357" data-name="Path 357" d="M9.108,298.848a7.519,7.519,0,0,0-1.564-.181A7.553,7.553,0,0,0,0,306.211a.839.839,0,0,0,.838.838H6.86a2.486,2.486,0,0,1-.154-.838A12.5,12.5,0,0,1,9.108,298.848Z" transform="translate(0 -298.667)" fill="#4de0f9"/>
      </g>
    </g>
    <g id="Group_296" data-name="Group 296" transform="translate(29.45 17.176)">
      <g id="Group_295" data-name="Group 295">
        <path id="Path_358" data-name="Path 358" d="M376.327,298.667a7.52,7.52,0,0,0-1.564.181,12.5,12.5,0,0,1,2.4,7.363,2.485,2.485,0,0,1-.154.838h6.022a.839.839,0,0,0,.838-.838A7.553,7.553,0,0,0,376.327,298.667Z" transform="translate(-374.763 -298.667)" fill="#4de0f9"/>
      </g>
    </g>
  </g>
</svg>
