<?xml version="1.0" standalone="no"?>
<!DOCTYPE svg PUBLIC "-//W3C//DTD SVG 1.1//EN" "http://www.w3.org/Graphics/SVG/1.1/DTD/svg11.dtd" >
<svg xmlns="http://www.w3.org/2000/svg">
<metadata>Generated by IcoMoon</metadata>
<defs>
<font id="busybee-icons" horiz-adv-x="1024">
<font-face units-per-em="1024" ascent="960" descent="-64" />
<missing-glyph horiz-adv-x="1024" />
<glyph unicode="&#x20;" horiz-adv-x="512" d="" />
<glyph unicode="&#xe900;" glyph-name="down-arrow" horiz-adv-x="989" d="M973.691 395.184c9.127 9.037 14.779 21.569 14.779 35.422 0 27.525-22.313 49.838-49.838 49.838-13.672 0-26.059-5.506-35.063-14.421l-359.287-359.287v803.678c0 0.072 0.001 0.157 0.001 0.243 0 27.251-22.092 49.343-49.343 49.343-0.106 0-0.213 0-0.319-0.001h0.016c-0.126 0.001-0.275 0.002-0.424 0.002-27.446 0-49.715-22.164-49.885-49.57v-803.634l-358.626 359.291c-9.146 8.887-21.644 14.366-35.422 14.366s-26.276-5.479-35.434-14.378l0.012 0.012c-9.175-9.014-14.861-21.554-14.861-35.422s5.686-26.407 14.854-35.415l444.334-444.334c8.883-9.166 21.307-14.855 35.059-14.855s26.177 5.689 35.047 14.842l0.012 0.013z" />
<glyph unicode="&#xe901;" glyph-name="edit-tools" d="M0 149.358v-213.358h213.358l629.541 629.541-213.358 213.358zM1007.397 810.496l-132.901 132.827c-10.305 10.275-24.525 16.627-40.229 16.627s-29.924-6.353-40.23-16.629l-104.154-104.154 213.358-213.358 104.155 104.155c10.296 10.309 16.664 24.543 16.664 40.265s-6.368 29.957-16.665 40.266l0.001-0.001z" />
<glyph unicode="&#xe902;" glyph-name="send-to-trash" horiz-adv-x="835" d="M559.54 589.164c-0.016 0-0.035 0-0.054 0-13.25 0-23.995-10.726-24.026-23.969v-453.259c0-13.299 10.781-24.080 24.080-24.080s24.080 10.781 24.080 24.080v0 453.256c-0.031 13.246-10.776 23.972-24.026 23.972-0.019 0-0.038 0-0.057 0h0.003zM275.433 589.164c-0.016 0-0.035 0-0.054 0-13.25 0-23.995-10.726-24.026-23.969v-453.259c0-13.299 10.781-24.080 24.080-24.080s24.080 10.781 24.080 24.080v0 453.256c-0.031 13.246-10.776 23.972-24.026 23.972-0.019 0-0.038 0-0.057 0h0.003zM68.36 655.154v-590.838c-0.004-0.399-0.007-0.87-0.007-1.342 0-34.775 13.444-66.41 35.418-89.991l-0.073 0.079c21.689-22.845 52.28-37.058 86.19-37.062h455.519c0.031 0 0.067 0 0.103 0 33.879 0 64.438 14.216 86.037 37.008l0.050 0.054c21.901 23.502 35.345 55.137 35.345 89.912 0 0.472-0.002 0.943-0.007 1.414l0.001-0.072v590.838c39.602 10.676 68.268 46.271 68.268 88.561 0 50.577-41.001 91.578-91.578 91.578-0.1 0-0.2 0-0.3 0h-123.669v30.005c0 0.081 0 0.178 0 0.274 0 52.124-42.255 94.379-94.379 94.379-0.322 0-0.644-0.002-0.965-0.005h-213.758c-0.288 0.003-0.629 0.005-0.97 0.005-52.124 0-94.379-42.255-94.379-94.379 0-0.115 0-0.231 0.001-0.346v0.018-29.951h-123.468c-0.085 0-0.185 0-0.285 0-50.577 0-91.578-41.001-91.578-91.578 0-42.29 28.666-77.885 67.627-88.414l0.641-0.148zM645.245-16.056h-455.518c-40.817 1.512-73.333 34.966-73.333 76.014 0 1.533 0.045 3.056 0.135 4.567l-0.010-0.208v588.575h601.881v-588.575c0.078-1.286 0.122-2.79 0.122-4.305 0-41.047-32.514-74.501-73.193-76.010l-0.138-0.004zM263.367 865.298c-0.002 0.147-0.003 0.32-0.003 0.494 0 25.556 20.717 46.274 46.274 46.274 0.323 0 0.645-0.003 0.966-0.010l-0.048 0.001h213.807c0.273 0.006 0.595 0.009 0.918 0.009 25.556 0 46.274-20.717 46.274-46.274 0-0.174-0.001-0.347-0.003-0.52v0.026-29.951h-308.186zM91.739 787.565h651.225c23.801 0 43.095-19.294 43.095-43.095s-19.294-43.095-43.095-43.095v0h-651.225c-23.801 0-43.095 19.294-43.095 43.095s19.294 43.095 43.095 43.095v0zM417.486 589.164c-0.016 0-0.035 0-0.054 0-13.25 0-23.995-10.726-24.026-23.969v-453.259c0-13.299 10.781-24.080 24.080-24.080s24.080 10.781 24.080 24.080v0 453.256c-0.031 13.246-10.776 23.972-24.026 23.972-0.019 0-0.038 0-0.057 0h0.003z" />
<glyph unicode="&#xe903;" glyph-name="share" d="M804.557 374.835c-72.342-0.159-136.414-35.421-176.108-89.65l-0.43-0.615-199.68 99.891c6.343 18.922 10.157 40.727 10.494 63.374l0.002 0.165c-0.339 22.812-4.153 44.616-10.935 65.068l0.439-1.529 199.68 99.891c40.255-53.932 103.9-88.478 175.614-88.478 120.686 0 218.522 97.835 218.522 218.522s-97.835 218.522-218.522 218.522c-120.686 0-218.522-97.835-218.522-218.522 0-0.323 0.001-0.645 0.002-0.967v0.050c0.338-22.812 4.153-44.617 10.935-65.068l-0.439 1.529-199.68-99.891c-40.366 55.007-104.775 90.317-177.431 90.317-121.195 0-219.443-98.248-219.443-219.443s98.248-219.443 219.443-219.443c72.656 0 137.065 35.31 177.002 89.705l0.428 0.612 199.68-99.891c-6.343-18.923-10.158-40.727-10.494-63.374l-0.002-0.165c0-121.195 98.248-219.443 219.443-219.443s219.443 98.248 219.443 219.443c0 121.195-98.248 219.443-219.443 219.443v0zM804.557 886.835c80.787 0 146.278-65.491 146.278-146.278s-65.491-146.278-146.278-146.278c-80.787 0-146.278 65.491-146.278 146.278v0c0.087 80.752 65.526 146.191 146.27 146.278h0.008zM219.443 301.722c-80.787 0-146.278 65.491-146.278 146.278s65.491 146.278 146.278 146.278c80.787 0 146.278-65.491 146.278-146.278v0c-0.087-80.752-65.526-146.191-146.27-146.278h-0.008zM804.608 9.165c-80.787 0-146.278 65.491-146.278 146.278s65.491 146.278 146.278 146.278c80.787 0 146.278-65.491 146.278-146.278v0c-0.087-80.77-65.555-146.22-146.324-146.278h-0.006z" />
<glyph unicode="&#xe904;" glyph-name="right-arrow" horiz-adv-x="720" d="M10.839 625.577c-6.188-6.499-9.995-15.314-9.995-25.018 0-20.053 16.256-36.309 36.309-36.309 9.572 0 18.278 3.704 24.765 9.756l-0.021-0.020 261.686 261.686v-863.541c0-0.053 0-0.115 0-0.178 0-19.857 16.097-35.954 35.954-35.954 0.063 0 0.125 0 0.188 0h-0.010c0.088-0.001 0.193-0.001 0.297-0.001 20.003 0 36.234 16.149 36.368 36.12v863.495l261.212-261.686c6.659-6.475 15.761-10.467 25.795-10.467s19.136 3.992 25.804 10.475l-0.009-0.008c6.687 6.562 10.832 15.695 10.832 25.795s-4.145 19.233-10.826 25.79l-0.006 0.005-323.643 323.643c-6.469 6.673-15.515 10.815-25.529 10.815s-19.060-4.142-25.52-10.805l-0.009-0.009z" />
<glyph unicode="&#xe905;" glyph-name="files" horiz-adv-x="1144" d="M90.353 625.815v-509.13c0-49.821 40.532-90.352 90.353-90.352h783.058c49.821 0 90.353 40.532 90.353 90.352v418.777c0 49.821-40.532 90.353-90.353 90.353h-873.411zM0 716.168h963.763c99.801 0 180.706-80.905 180.706-180.706v-418.777c0-99.801-80.905-180.705-180.706-180.705h-783.058c-99.801 0-180.706 80.904-180.706 180.705v599.483zM180.706 869.647c-49.821 0-90.353-40.532-90.353-90.353v-21.511h527.774v21.511c0 49.821-40.532 90.353-90.353 90.353h-347.069zM180.706 960h347.069c99.801 0 180.706-80.904 180.706-180.706v-111.864h-708.48v111.864c0 99.801 80.904 180.706 180.706 180.706z" />
<glyph unicode="&#xe906;" glyph-name="avatar" horiz-adv-x="885" d="M438.739 408.258h6.914c1.329-0.032 2.895-0.050 4.465-0.050 58.254 0 110.699 24.87 147.297 64.571l0.126 0.139c82.969 92.040 69.141 249.791 67.647 264.836 0.081 2.211 0.128 4.808 0.128 7.416 0 78.101-41.505 146.507-103.661 184.367l-0.952 0.539c-33.521 18.746-73.534 29.824-116.127 29.924h-3.681c-0.281 0.001-0.615 0.002-0.948 0.002-42.201 0-81.891-10.756-116.476-29.676l1.267 0.635c-63.857-38.238-105.942-107.053-105.942-185.697 0-2.621 0.047-5.231 0.139-7.83l-0.011 0.376c-1.493-15.045-15.322-172.796 67.647-264.836 36.592-39.875 88.949-64.779 147.122-64.779 1.773 0 3.541 0.023 5.303 0.069l-0.26-0.005zM276.95 732.5c0 0.664 0 1.272 0 1.715 7.135 152.054 116.765 168.371 163.725 168.371h2.6c2.321 0.123 5.039 0.193 7.773 0.193 86.39 0 156.424-70.033 156.424-156.424 0-4.273-0.171-8.506-0.507-12.692l0.036 0.551c-0.059-0.258-0.092-0.554-0.092-0.857s0.034-0.6 0.097-0.884l-0.005 0.027c0-1.493 15.322-145.693-53.211-221.582-26.067-28.031-63.153-45.511-104.321-45.511-2.334 0-4.655 0.056-6.961 0.167l0.325-0.012h-2.157c-1.948-0.096-4.23-0.15-6.525-0.15-41.099 0-78.114 17.482-104.016 45.415l-0.083 0.091c-67.979 75.446-53.321 220.254-53.1 221.526zM884.944 146.575v0.664c0 1.715 0 3.374 0 5.531-1.272 41.982-4.093 140.162-97.627 171.469l-2.157 0.608c-67.963 18.691-127.458 46.117-181.163 81.599l2.338-1.451c-4.655 3.242-10.43 5.18-16.657 5.18-9.775 0-18.435-4.775-23.774-12.12l-0.059-0.085c-3.295-4.569-5.271-10.281-5.271-16.455 0-9.699 4.876-18.259 12.31-23.363l0.096-0.062c56.467-37.768 121.928-68.069 191.946-87.383l4.746-1.117c50.224-17.589 55.81-70.413 57.304-118.756-0.058-0.827-0.091-1.793-0.091-2.766s0.033-1.938 0.098-2.895l-0.007 0.129c0.038-1.998 0.060-4.354 0.060-6.715 0-20.768-1.671-41.146-4.886-61.007l0.291 2.177c-105.804-54.91-231-87.113-363.718-87.113-5.666 0-11.318 0.059-16.956 0.175l0.842-0.014c-4.411-0.087-9.612-0.136-14.824-0.136-133.25 0-258.963 32.273-369.748 89.428l4.52-2.12c-2.944 17.266-4.627 37.154-4.627 57.435 0 2.852 0.033 5.696 0.099 8.532l-0.008-0.422c0 1.715 0 3.374 0 5.531 1.493 48.343 7.135 101.167 57.304 118.756 74.763 20.552 140.21 50.841 199.199 90.069l-2.508-1.569c7.53 5.167 12.406 13.727 12.406 23.426 0 6.173-1.975 11.885-5.328 16.538l0.057-0.084c-5.397 7.429-14.057 12.205-23.832 12.205-6.227 0-12.001-1.938-16.753-5.243l0.096 0.063c-51.353-34.145-110.863-61.583-174.477-79.125l-4.348-1.023-2.157-0.664c-93.533-31.583-96.299-129.763-97.627-171.469 0.058-0.827 0.091-1.793 0.091-2.766s-0.033-1.938-0.098-2.895l0.007 0.129v-0.608c-0.139-3.527-0.218-7.667-0.218-11.826 0-29.975 4.118-58.989 11.82-86.505l-0.539 2.254c2.209-5.638 6.055-10.234 10.95-13.319l0.113-0.066c114.482-63.991 251.186-101.673 396.691-101.673 8.328 0 16.627 0.123 24.896 0.369l-1.212-0.028c6.876-0.205 14.964-0.322 23.080-0.322 145.706 0 282.614 37.672 401.514 103.808l-4.219-2.154c4.953 3.212 8.781 7.788 10.994 13.196l0.069 0.19c7.053 25.702 11.106 55.213 11.106 85.67 0 3.582-0.056 7.151-0.167 10.706l0.013-0.519z" />
<glyph unicode="&#xe907;" glyph-name="folder" horiz-adv-x="1378" d="M1263.577 675.564h-976.384c-0.234 0.002-0.511 0.003-0.787 0.003-53.23 0-97.932-36.514-110.423-85.862l-0.169-0.787v-0.63l-168.369-562.097c-0.742-2.408-1.17-5.175-1.17-8.043 0-3.83 0.763-7.482 2.144-10.813l-0.069 0.187c17.374-42.288 58.241-71.523 105.936-71.523 0.141 0 0.283 0 0.424 0.001h976.559c0.146-0.001 0.32-0.001 0.493-0.001 51.856 0 95.641 34.558 109.58 81.901l0.204 0.808c0.236 0.591 0.473 1.221 0.67 1.851l170.614 506.21c0.496 1.4 0.908 3.060 1.163 4.772l0.018 0.151c2.77 9.027 4.405 19.41 4.49 30.163v0.045c-0.446 62.871-51.516 113.665-114.449 113.665-0.167 0-0.334 0-0.501-0.001h0.026zM24.576 369.625c1.242-0.229 2.684-0.371 4.154-0.394h0.021c0.038 0 0.083 0 0.128 0 12.871 0 23.761 8.481 27.387 20.159l0.054 0.203 64 214.055 0.236 0.985c20.134 74.138 86.833 127.765 166.057 127.765 0.217 0 0.435 0 0.652-0.001h884.938c0.055 0 0.12-0.001 0.186-0.001 9.626 0 18.151 4.718 23.387 11.968l0.058 0.085c3.274 4.555 5.236 10.244 5.236 16.392 0 3.415-0.605 6.689-1.715 9.719l0.063-0.196c-16.454 44.568-58.554 75.778-107.949 75.815h-533.942l-106.338 105.433c-5.212 5.184-12.397 8.389-20.331 8.389-0.039 0-0.077 0-0.116 0h-315.859c-0.129 0.001-0.282 0.001-0.435 0.001-62.975 0-114.070-50.861-114.45-113.747v-448.509c0.062-14.309 10.654-26.124 24.423-28.103l0.153-0.018z" />
<glyph unicode="&#xe908;" glyph-name="Group-343" horiz-adv-x="1618" d="M1413.047 522.679h-928.183c-31.005-8.442-53.426-36.346-53.426-69.486s22.421-61.044 52.922-69.368l0.504-0.117h928.183c31.005 8.442 53.426 36.346 53.426 69.486s-22.421 61.044-52.922 69.368l-0.504 0.117zM1557.065 935.717h-1064.302c-34.851-4.361-61.547-33.806-61.547-69.486s26.696-65.125 61.203-69.451l0.343-0.035h1064.375c34.851 4.361 61.547 33.806 61.547 69.486s-26.696 65.125-61.203 69.451l-0.343 0.035zM1162.459 131.218h-691.273c-21.943 0-39.79-31.086-39.79-69.413s17.774-69.413 39.79-69.413h691.273c21.943 0 39.79 31.086 39.79 69.413s-17.774 69.413-39.79 69.413zM219.429 850.286c0-60.594-49.121-109.714-109.714-109.714s-109.714 49.121-109.714 109.714c0 60.594 49.121 109.714 109.714 109.714s109.714-49.121 109.714-109.714zM219.429 484.571c0-60.594-49.121-109.714-109.714-109.714s-109.714 49.121-109.714 109.714c0 60.594 49.121 109.714 109.714 109.714s109.714-49.121 109.714-109.714zM219.429 45.714c0-60.594-49.121-109.714-109.714-109.714s-109.714 49.121-109.714 109.714c0 60.594 49.121 109.714 109.714 109.714s109.714-49.121 109.714-109.714z" />
<glyph unicode="&#xe909;" glyph-name="house" horiz-adv-x="1073" d="M1063.333 497.985l-505.266 451.605c-0.831 0.831-1.764 1.559-2.779 2.164l-0.065 0.036c-5.345 5.071-12.585 8.189-20.554 8.189-7.634 0-14.599-2.862-19.882-7.571l0.030 0.026-504.836-451.713c-6.148-5.493-10-13.444-10-22.296 0-16.488 13.366-29.855 29.855-29.855 7.637 0 14.604 2.867 19.883 7.584l-0.029-0.025 90.954 81.456v-526.676c0-41.49 33.634-75.124 75.124-75.124v0h159.318c38.843 0.092 70.295 31.601 70.295 70.456 0 0.057 0 0.113 0 0.17v-0.009 267.765c0 5.927 4.805 10.732 10.732 10.732v0h160.981c5.927 0 10.732-4.805 10.732-10.732v0-267.765c0.031-38.87 31.533-70.372 70.399-70.402h159.374c42.765 5.032 75.627 41.062 75.627 84.768 0 3.257-0.183 6.471-0.538 9.634l0.035-0.388v504.836l90.954-81.456c5.264-4.672 12.235-7.526 19.871-7.526 8.843 0 16.792 3.827 22.282 9.914l0.024 0.027c4.555 5.281 7.329 12.209 7.329 19.786 0 8.852-3.787 16.82-9.829 22.371l-0.022 0.020zM873.053 350.472v-320.298c0-21.464-10.732-34.45-15.454-34.45h-159.371c-5.927 0-10.732 4.805-10.732 10.732v0 267.711c-0.031 38.87-31.533 70.372-70.399 70.402h-160.984c-38.87-0.031-70.372-31.533-70.402-70.399v-267.768c0-5.927-4.805-10.732-10.732-10.732v0h-159.478c-8.523 0.030-15.424 6.931-15.454 15.451v580.017l335.055 299.317 338.060-302.161v-237.823z" />
<glyph unicode="&#xe90a;" glyph-name="logout" d="M721.676 175.974v-79.97c-0.11-88.209-71.496-159.709-159.651-160.004h-402.021c-88.323 0.111-159.893 71.681-160.004 159.993v704.003c0.111 88.323 71.681 159.893 159.993 160.004h402.004c88.183-0.295 159.569-71.795 159.679-159.994v-79.98c0-22.083-17.902-39.985-39.985-39.985s-39.985 17.902-39.985 39.985v0 79.97c-0.074 44.136-35.833 79.896-79.962 79.97h-401.74c-44.136-0.074-79.896-35.833-79.97-79.962v-703.999c0.074-44.136 35.833-79.896 79.962-79.97h402c44.136 0.074 79.896 35.833 79.97 79.962v79.977c0 22.083 17.902 39.985 39.985 39.985s39.985-17.902 39.985-39.985v0zM994.743 516.722l-89.592 89.527c-7.238 7.238-17.237 11.715-28.282 11.715-22.090 0-39.997-17.907-39.997-39.997 0-11.045 4.477-21.044 11.715-28.282l63.716-63.716h-480.272c-22.083 0-39.985-17.902-39.985-39.985s17.902-39.985 39.985-39.985h480.272l-63.716-63.716c-7.238-7.238-11.715-17.237-11.715-28.282 0-22.090 17.907-39.997 39.997-39.997 11.045 0 21.044 4.477 28.282 11.715l89.592 89.592c18.063 18.11 29.232 43.103 29.232 70.705s-11.169 52.595-29.234 70.707l0.002-0.002z" />
<glyph unicode="&#xe90b;" glyph-name="overview" d="M394.638 618.667h-320c-41.195 0.065-74.574 33.443-74.638 74.632v192.006c0.032 41.22 33.423 74.63 74.632 74.695h320.006c41.24-0.032 74.663-33.455 74.695-74.692v-192.003c-0.065-41.216-33.475-74.606-74.692-74.638h-0.003zM74.638 896c-5.862-0.032-10.606-4.776-10.638-10.635v-192.060c0 0 0 0 0 0 0-5.887 4.756-10.663 10.635-10.695h320.003c5.907 0 10.695 4.788 10.695 10.695v0 192c-0.032 5.882-4.808 10.638-10.695 10.638 0 0 0 0 0 0v0zM394.638-64h-320c-41.195 0.065-74.574 33.443-74.638 74.632v448.006c0.032 41.22 33.423 74.63 74.632 74.695h320.006c41.24-0.032 74.663-33.455 74.695-74.692v-448.003c-0.065-41.216-33.475-74.606-74.692-74.638h-0.003zM74.638 469.333c-5.882-0.032-10.638-4.808-10.638-10.695 0 0 0 0 0 0v0-448c0.032-5.862 4.776-10.606 10.635-10.638h320.003c0 0 0 0 0 0 5.887 0 10.663 4.756 10.695 10.635v448.003c0 5.907-4.788 10.695-10.695 10.695v0zM949.362-64h-320c-41.22 0.032-74.63 33.423-74.695 74.632v192.006c0.032 41.24 33.455 74.663 74.692 74.695h320.003c41.216-0.065 74.606-33.475 74.638-74.692v-192.003c-0.065-41.195-33.443-74.574-74.632-74.638h-0.006zM629.362 213.333c-5.907 0-10.695-4.788-10.695-10.695v0-192c0.032-5.882 4.808-10.638 10.695-10.638 0 0 0 0 0 0h320c5.862 0.032 10.606 4.776 10.638 10.635v192.003c0 0 0 0 0 0 0 5.887-4.756 10.663-10.635 10.695h-0.003zM949.362 362.667h-320c-41.24 0.032-74.663 33.455-74.695 74.692v447.946c0.032 41.24 33.455 74.663 74.692 74.695h320.003c41.195-0.065 74.574-33.443 74.638-74.632v-448.063c-0.065-41.195-33.443-74.574-74.632-74.638h-0.006zM629.362 896c0 0 0 0 0 0-5.887 0-10.663-4.756-10.695-10.635v-448.060c0-5.907 4.788-10.695 10.695-10.695v0h320c5.882 0.032 10.638 4.808 10.638 10.695 0 0 0 0 0 0v0 448c-0.032 5.862-4.776 10.606-10.635 10.638h-0.003z" />
<glyph unicode="&#xe90c;" glyph-name="picture" horiz-adv-x="1194" d="M540.785 498.129c65.876 0 119.279 53.403 119.279 119.279s-53.403 119.279-119.279 119.279c-65.876 0-119.279-53.403-119.279-119.279v0c0.083-65.843 53.436-119.197 119.271-119.279h0.008zM540.785 666.703c27.224 0 49.294-22.070 49.294-49.294s-22.070-49.294-49.294-49.294c-27.224 0-49.294 22.070-49.294 49.294v0c0.124 27.145 22.137 49.108 49.29 49.149h0.004zM1150.394 960h-1106.907c-24.057 0-43.559-19.502-43.559-43.559v0-936.519c0-24.057 19.502-43.559 43.559-43.559h1106.907c24.057 0 43.559 19.502 43.559 43.559v0 936.519c0 24.057-19.502 43.559-43.559 43.559v0zM1124.041 890.015v-553.635l-220.046 220.046c-6.657 6.639-15.844 10.744-25.99 10.744s-19.333-4.105-25.991-10.745l-311.228-311.156-198.774 198.702c-6.661 6.661-15.863 10.78-26.027 10.78s-19.366-4.12-26.027-10.78l-220.046-219.973v666.017zM69.912 5.912v119.207l246.036 245.963 198.774-198.774c6.653-6.678 15.857-10.811 26.027-10.811s19.374 4.132 26.025 10.809l311.158 311.23 246.036-246.036v-231.516zM39.784 140.292l285.457 288.796 233.549-242.188 320.014 354.643 268.178-268.178v-288.288h-1096.235z" />
<glyph unicode="&#xe90d;" glyph-name="recent" d="M916.299 690.568c-14.368-7.063-24.082-21.594-24.082-38.394 0-6.763 1.574-13.158 4.376-18.839l-0.111 0.25c26.603-53.748 42.168-117.032 42.168-183.95 0-0.575-0.001-1.149-0.003-1.724v0.089c0-235.63-191.016-426.647-426.647-426.647s-426.647 191.016-426.647 426.647c0 235.63 191.016 426.647 426.647 426.647v0c0.616 0.003 1.345 0.005 2.074 0.005 99.832 0 191.56-34.695 263.785-92.685l-0.824 0.64c7.211-5.768 16.465-9.257 26.534-9.257 23.559 0 42.657 19.098 42.657 42.657 0 13.49-6.262 25.518-16.038 33.335l-0.085 0.066c-86.49 69.055-197.42 110.808-318.103 110.808-282.77 0-512-229.23-512-512s229.23-512 512-512c282.694 0 511.877 229.107 512 511.772v0.012c0.002 0.523 0.003 1.142 0.003 1.762 0 80.446-18.745 156.514-52.105 224.075l1.324-2.966c-7.063 14.368-21.594 24.082-38.394 24.082-6.763 0-13.158-1.574-18.839-4.376l0.25 0.111zM512 789.353c-23.539-0.034-42.612-19.107-42.647-42.643v-298.65c0.034-23.539 19.107-42.612 42.643-42.647h213.356c23.57 0 42.677 19.107 42.677 42.677s-19.107 42.677-42.677 42.677v0h-170.647v256c-0.069 23.534-19.163 42.586-42.707 42.586 0 0 0 0 0 0v0z" />
<glyph unicode="&#xe90e;" glyph-name="trash" horiz-adv-x="832" d="M557.344 589.168c-13.254 0-23.999-10.745-23.999-23.999v0-453.271c-0.018-0.351-0.029-0.763-0.029-1.176 0-13.254 10.745-23.999 23.999-23.999s23.999 10.745 23.999 23.999c0 0.414-0.010 0.825-0.031 1.234l0.002-0.057v453.271c0 0 0 0 0 0 0 13.234-10.712 23.966-23.938 23.999h-0.003zM274.374 589.168c-13.254 0-23.999-10.745-23.999-23.999v0-453.271c-0.018-0.351-0.029-0.763-0.029-1.176 0-13.254 10.745-23.999 23.999-23.999s23.999 10.745 23.999 23.999c0 0.414-0.010 0.825-0.031 1.234l0.002-0.057v453.271c0 0 0 0 0 0 0 13.234-10.712 23.966-23.938 23.999h-0.003zM68.074 655.165v-590.862c-0.005-0.42-0.008-0.917-0.008-1.414 0-34.731 13.384-66.335 35.276-89.937l-0.078 0.085c21.532-22.778 51.937-36.974 85.658-37.037h453.745c33.733 0.063 64.137 14.259 85.617 36.981l0.052 0.056c21.814 23.517 35.199 55.122 35.199 89.852 0 0.497-0.003 0.993-0.008 1.489l0.001-0.076v590.862c39.54 10.733 68.141 46.304 68.141 88.554 0 50.596-41.016 91.612-91.612 91.612-0.003 0-0.007 0-0.010 0h-122.591v29.999c0.001 0.121 0.001 0.265 0.001 0.409 0 52.030-42.178 94.208-94.208 94.208-0.345 0-0.69-0.002-1.034-0.006h-212.882c-0.223 0.002-0.487 0.003-0.751 0.003-52.030 0-94.208-42.178-94.208-94.208 0-0.163 0-0.327 0.001-0.49v0.025-29.999h-122.765c-0.003 0-0.006 0-0.009 0-50.596 0-91.612-41.016-91.612-91.612 0-42.251 28.602-77.821 67.499-88.405l0.642-0.149zM642.668-16.002h-453.733c-40.678 1.585-73.054 34.945-73.054 75.866 0 1.582 0.048 3.152 0.144 4.71l-0.010-0.214v588.728h599.516v-588.786c0.083-1.327 0.13-2.879 0.13-4.441 0-40.932-32.368-74.304-72.904-75.917l-0.146-0.005zM262.317 865.273c-0.003 0.191-0.004 0.417-0.004 0.643 0 25.489 20.663 46.152 46.152 46.152 0.306 0 0.611-0.003 0.915-0.009l-0.046 0.001h212.934c0.259 0.005 0.564 0.008 0.87 0.008 25.489 0 46.152-20.663 46.152-46.152 0-0.226-0.002-0.452-0.005-0.677v0.034-29.999h-306.969zM91.612 787.333h648.437c23.896 0 43.268-19.372 43.268-43.268s-19.372-43.268-43.268-43.268v0h-648.437c-23.896 0-43.268 19.372-43.268 43.268s19.372 43.268 43.268 43.268v0zM415.831 589.168c-13.254 0-23.999-10.745-23.999-23.999v0-453.271c-0.018-0.351-0.029-0.763-0.029-1.176 0-13.254 10.745-23.999 23.999-23.999s23.999 10.745 23.999 23.999c0 0.414-0.010 0.825-0.031 1.234l0.002-0.057v453.271c0 0 0 0 0 0 0 13.234-10.712 23.966-23.938 23.999h-0.003z" />
<glyph unicode="&#xe90f;" glyph-name="forward" horiz-adv-x="564" d="M548.836 411.452l-460.472-460.328c-9.362-9.38-22.304-15.182-36.602-15.182-28.56 0-51.713 23.153-51.713 51.713 0 14.262 5.774 27.176 15.111 36.531l423.959 423.815-423.888 423.78c-9.347 9.356-15.128 22.277-15.128 36.548 0 28.56 23.152 51.713 51.713 51.713 14.289 0 27.224-5.795 36.584-15.164v0l460.508-460.148c9.269-9.412 14.992-22.338 14.992-36.602 0-14.299-5.752-27.255-15.069-36.68l0.005 0.005z" />
<glyph unicode="&#xe910;" glyph-name="back" horiz-adv-x="564" d="M14.979 411.452l460.472-460.328c9.362-9.38 22.304-15.182 36.602-15.182 28.56 0 51.713 23.153 51.713 51.713 0 14.262-5.774 27.176-15.111 36.531l-423.959 423.779 423.924 423.816c9.344 9.358 15.123 22.278 15.123 36.548 0 28.567-23.158 51.725-51.725 51.725-14.297 0-27.239-5.8-36.602-15.176l-460.509-460.149c-9.269-9.412-14.992-22.338-14.992-36.602 0-14.299 5.752-27.255 15.069-36.68l-0.005 0.005z" />
<glyph unicode="&#xe911;" glyph-name="plus" d="M932.571 539.429h-310.857c-10.098 0-18.286 8.187-18.286 18.286v310.857c0 50.491-40.937 91.429-91.429 91.429s-91.429-40.937-91.429-91.429v-310.857c0-10.098-8.187-18.286-18.286-18.286h-310.857c-50.491 0-91.429-40.937-91.429-91.429s40.937-91.429 91.429-91.429h310.857c10.098 0 18.286-8.187 18.286-18.286v-310.857c0-50.491 40.937-91.429 91.429-91.429s91.429 40.937 91.429 91.429v310.857c0 10.098 8.187 18.286 18.286 18.286h310.857c50.491 0 91.429 40.937 91.429 91.429s-40.937 91.429-91.429 91.429z" />
<glyph unicode="&#xe912;" glyph-name="calendor" d="M906.971-63.927h-789.943c-64.533 0.248-116.78 52.496-117.028 117.005v704.243c0.207 64.55 52.479 116.821 117.009 117.029h789.963c64.55-0.207 116.821-52.479 117.029-117.009v-704.239c-0.248-64.533-52.496-116.78-117.005-117.028h-0.024zM117.029 810.642c-29.432-0.042-53.28-23.889-53.321-53.317v-704.223c0.042-29.432 23.889-53.28 53.317-53.321h789.947c29.432 0.042 53.28 23.889 53.321 53.317v704.223c-0.042 29.432-23.889 53.28-53.317 53.321h-0.004zM992.037 554.642h-960c-17.022 0.839-30.506 14.845-30.506 32s13.484 31.161 30.431 31.997l0.075 0.003h960c17.022-0.839 30.506-14.845 30.506-32s-13.484-31.161-30.431-31.997l-0.075-0.003zM245.321 704c-17.636 0.042-31.922 14.327-31.963 31.959v192.004c0.839 17.022 14.845 30.506 32 30.506s31.161-13.484 31.997-30.431l0.003-0.075v-192c-0.042-17.662-14.369-31.963-32.036-31.963 0 0 0 0 0 0v0zM778.679 704c-17.636 0.042-31.922 14.327-31.963 31.959v192.004c0.839 17.022 14.845 30.506 32 30.506s31.161-13.484 31.997-30.431l0.003-0.075v-192c-0.042-17.662-14.369-31.963-32.036-31.963 0 0 0 0 0 0v0z" />
<glyph unicode="&#xe913;" glyph-name="user-profile" d="M1024 448c0 0.115 0 0.252 0 0.389 0 282.77-229.23 512-512 512s-512-229.23-512-512c0-149.282 63.888-283.642 165.813-377.229l0.373-0.338-0.477-0.441 16.6-13.993c1.065-0.918 2.24-1.653 3.342-2.534 8.814-7.345 17.959-14.25 27.288-20.971 3.012-2.167 6.023-4.37 9.108-6.464q14.911-10.283 30.556-19.502l6.868-3.93c11.422-6.501 23.064-12.634 35-18.363l2.644-1.175c35.731-17.059 77.25-30.652 120.713-38.705l3.128-0.481 3.416-0.624c13.479-2.314 27.104-4.187 40.913-5.435l5.031-0.404c13.736-1.139 27.618-1.873 41.721-1.873s27.692 0.735 41.354 1.836l5.178 0.404q20.53 1.873 40.399 5.325l3.489 0.624c45.937 8.378 86.869 21.652 125.192 39.577l-3.114-1.308 4.26 1.946q17.225 8.116 33.715 17.445l8.19 4.701c10.026 5.913 19.869 12.083 29.381 18.62 3.452 2.35 6.831 4.811 10.21 7.345 8.19 5.876 16.196 11.936 23.982 18.363 1.726 1.396 3.673 2.608 5.289 4.040l17.041 14.213-0.514 0.441c103.296 93.789 167.896 228.599 167.912 378.497v0.003zM37.24 448c0 0.123 0 0.268 0 0.414 0 262.203 212.557 474.76 474.76 474.76s474.76-212.557 474.76-474.76c0-141.172-61.617-267.952-159.424-354.915l-0.482-0.421c-4.745 3.367-10.189 6.684-15.86 9.623l-0.777 0.366-157.629 78.814c-13.712 6.904-22.954 20.867-22.954 36.989 0 0.037 0 0.073 0 0.11v-0.006 55.089c3.673 4.517 7.345 9.622 11.495 15.205 19.567 27.471 36.048 59.058 47.887 92.829l0.812 2.659c23.12 11.041 38.818 34.221 38.856 61.071v66.112c-0.067 16.9-6.314 32.328-16.597 44.154l0.070-0.082v86.857c0.313 3.637 0.492 7.87 0.492 12.145 0 37.097-13.451 71.052-35.742 97.255l0.177-0.213c-37.762 37.009-89.532 59.849-146.635 59.849-6.56 0-13.049-0.301-19.455-0.891l0.822 0.061c-5.586 0.529-12.077 0.83-18.64 0.83-57.095 0-108.859-22.825-146.665-59.848l0.036 0.036c-22.114-25.989-35.565-59.945-35.565-97.042 0-4.275 0.179-8.508 0.529-12.693l-0.037 0.547v-86.894c-10.204-11.748-16.449-27.173-16.527-44.055v-66.123c0-0.007 0-0.015 0-0.023 0-21.119 9.667-39.981 24.818-52.401l0.119-0.095c12.358-45.463 32.145-85.163 58.233-119.854l-0.646 0.898v-53.877c0-0.004 0-0.008 0-0.012 0-15.642-8.646-29.264-21.419-36.349l-0.213-0.108-146.795-80.247c-5.432-3-10.004-5.93-14.377-9.118l0.384 0.267c-97.045 87.123-157.812 212.979-157.812 353.027 0 0.021 0 0.041 0 0.062v-0.003zM790.532 63.881q-9.769-7.088-19.869-13.699c-3.085-2.020-6.17-4.040-9.292-5.986-8.778-5.435-17.739-10.614-26.847-15.462l-6.060-3.122c-17.948-9.502-39.4-18.786-61.599-26.468l-3.333-1.003-2.461-0.771q-17.518-5.803-35.441-10.283v0c-12.083-2.975-24.276-5.472-36.726-7.345l-0.992-0.184c-11.569-1.873-23.211-3.232-34.927-4.26l-6.207-0.477c-11.569-0.881-23.174-1.432-34.853-1.432s-23.578 0.588-35.294 1.469l-6.060 0.477c-11.789 1.028-23.541 2.424-35.184 4.334l-1.579 0.294c-27.804 4.614-52.159 10.804-75.682 18.795l3.332-0.983-2.204 0.735q-17.555 5.986-34.67 13.258h-0.257c-10.761 4.628-21.301 9.769-31.731 15.205l-4.077 2.093c-9.512 5.068-18.841 10.577-27.985 16.306l-8.116 5.178c-8.447 5.546-16.784 11.275-24.9 17.371l-2.461 1.946 1.8 0.992 147.199 80.283c24.586 13.644 40.95 39.451 40.95 69.080 0 0.104 0 0.208-0.001 0.312v-0.016 67.062l-4.297 5.178c-25.42 32.632-44.724 71.386-55.4 113.576l-0.461 2.148-1.689 7.345-6.243 4.297c-8.571 5.499-14.2 14.933-14.323 25.69v66.125c0.028 9.063 4.016 17.188 10.323 22.741l0.034 0.029 6.133 5.546v106.102c-0.227 2.678-0.357 5.794-0.357 8.941 0 27.592 9.966 52.855 26.495 72.388l-0.136-0.165c31.253 29.209 73.364 47.144 119.663 47.144 6.14 0 12.207-0.315 18.185-0.931l-0.749 0.063c5.199 0.546 11.233 0.857 17.34 0.857 46.159 0 88.165-17.781 119.542-46.868l-0.113 0.104c16.55-19.637 26.608-45.218 26.608-73.148 0-2.963-0.113-5.9-0.336-8.807l0.024 0.386v-106.139l6.133-5.546c6.337-5.585 10.324-13.709 10.357-22.764v-66.040c-0.171-13.792-9.292-25.408-21.815-29.322l-0.22-0.059-9.255-2.865-2.975-9.218c-11.538-35.725-27.323-66.786-47.177-94.755l0.719 1.066c-4.885-6.905-9.622-13.001-13.699-17.665l-4.628-5.252v-68.862c0-0.082 0-0.178 0-0.275 0-30.567 17.523-57.041 43.072-69.924l0.449-0.205 160.604-80.357c-2.24-1.432-4.297-2.828-6.28-4.26z" />
</font>
</defs>
</svg>
